<svg width="16" height="16" viewBox="0 0 16 16" fill="none" xmlns="http://www.w3.org/2000/svg">
<g id="ic:round-alternate-email">
<path id="Vector" d="M7.99467 2.12973C7.09562 2.06428 6.19302 2.19318 5.34823 2.50767C4.50344 2.82215 3.73626 3.31484 3.09885 3.95225C2.46145 4.58965 1.96876 5.35683 1.65427 6.20162C1.33979 7.04641 1.21089 7.94902 1.27634 8.84807C1.50259 12.1727 4.40611 14.6803 7.737 14.6803H10.0561C10.4017 14.6803 10.6845 14.3974 10.6845 14.0518C10.6845 13.7061 10.4017 13.4233 10.0561 13.4233H7.74957C5.40538 13.4233 3.25601 11.9024 2.67154 9.63365C1.73512 5.98853 5.12885 2.58851 8.77397 3.53122C11.049 4.10941 12.5699 6.25877 12.5699 8.60296V9.29428C12.5699 9.79077 12.1237 10.281 11.6272 10.281C11.1307 10.281 10.6845 9.79077 10.6845 9.29428V8.50869C10.6845 6.93123 9.56584 5.51089 8.00724 5.29093C7.51135 5.21719 7.00502 5.26298 6.53041 5.42449C6.05579 5.586 5.62663 5.85854 5.27864 6.21944C4.93065 6.58034 4.67392 7.01915 4.5298 7.49933C4.38568 7.97951 4.35836 8.48717 4.45011 8.98004C4.56033 9.57393 4.83952 10.1234 5.2542 10.5626C5.66887 11.0018 6.20143 11.3121 6.78801 11.4562C7.94439 11.7265 9.04421 11.3557 9.76695 10.6203C10.3263 11.3871 11.445 11.7893 12.4694 11.3808C13.3115 11.0477 13.8269 10.1804 13.8269 9.27542V8.59668C13.8269 5.25951 11.3193 2.35598 7.99467 2.12973ZM7.54217 10.281C6.49892 10.281 5.65677 9.43883 5.65677 8.39557C5.65677 7.35231 6.49892 6.51016 7.54217 6.51016C8.58543 6.51016 9.42758 7.35231 9.42758 8.39557C9.42758 9.43883 8.58543 10.281 7.54217 10.281Z" fill="white"/>
</g>
</svg>
