<svg width="16" height="16" viewBox="0 0 16 16" fill="none" xmlns="http://www.w3.org/2000/svg">
<g id="fluent:phone-20-filled">
<g id="Group">
<path id="Vector" d="M4.90273 1.55664C4.6027 1.55664 4.31497 1.67582 4.10282 1.88797C3.89067 2.10012 3.77148 2.38786 3.77148 2.68789V12.492C3.77148 12.792 3.89067 13.0798 4.10282 13.2919C4.31497 13.5041 4.6027 13.6232 4.90273 13.6232H10.1819C10.4819 13.6232 10.7696 13.5041 10.9818 13.2919C11.1939 13.0798 11.3131 12.792 11.3131 12.492V2.68789C11.3131 2.38786 11.1939 2.10012 10.9818 1.88797C10.7696 1.67582 10.4819 1.55664 10.1819 1.55664H4.90273ZM6.78814 10.6066H8.29646C8.39647 10.6066 8.49238 10.6463 8.5631 10.717C8.63382 10.7878 8.67354 10.8837 8.67354 10.9837C8.67354 11.0837 8.63382 11.1796 8.5631 11.2503C8.49238 11.321 8.39647 11.3608 8.29646 11.3608H6.78814C6.68813 11.3608 6.59222 11.321 6.5215 11.2503C6.45078 11.1796 6.41105 11.0837 6.41105 10.9837C6.41105 10.8837 6.45078 10.7878 6.5215 10.717C6.59222 10.6463 6.68813 10.6066 6.78814 10.6066Z" fill="white"/>
</g>
</g>
</svg>
